<svg xmlns="http://www.w3.org/2000/svg" width="1920" height="1080" viewBox="0 0 1920 1080">
  <defs>
    <style>
      .cls-1 {
        fill-rule: evenodd;
      }
    </style>
  </defs>
  <path id="playd" class="cls-1" d="M215.917,380.062q-50.376,50.655-50.375,122.146V811.5h95.875V657.125A169.6,169.6,0,0,0,338.333,675q71.5,0,121.875-50.646t50.375-122.146q0-71.5-50.375-122.146T338.333,329.417Q266.288,329.417,215.917,380.062Zm176.312,67.98q22.471,22.217,22.479,54.166,0,31.966-22.208,54.438t-54.167,22.479q-31.967,0-54.437-22.479t-22.479-54.438q0-31.953,22.479-54.166t54.437-22.209Q369.742,425.833,392.229,448.042ZM600.5,624.354Q650.874,675.009,722.375,675V579.125q-31.42,0-53.9-22.479T646,502.208V233.542H550.125V502.208Q550.125,573.709,600.5,624.354ZM747.83,502.208q0,71.5,50.646,122.146T920.622,675a165.507,165.507,0,0,0,76.916-18.417V675h95.872V502.208q0-71.5-50.64-122.146T920.622,329.417q-71.5,0-122.146,50.645T747.83,502.208Zm249.708,0q0,31.422-22.479,53.9t-54.437,22.479q-31.968,0-54.438-22.479t-22.479-53.9q0-31.953,22.479-54.437t54.438-22.479q31.953,0,54.437,22.479t22.479,54.437h0ZM1444.41,329.417H1342.03L1275.41,512.5l-82.34-183.083H1087.99l140.29,312.541-8.67,22.75a74.223,74.223,0,0,1-27.08,35.75,77.538,77.538,0,0,1-42.25,14.625v95.875q52.53-.546,96.69-31.146t63.1-82.062Zm345.58,172.791V233.542h-95.87v113.75a174.139,174.139,0,0,0-76.92-17.875q-71.505,0-122.15,50.645t-50.64,122.146q0,71.5,50.64,122.146T1617.2,675q71.5,0,122.15-50.646t50.64-122.146h0Zm-249.71,0q0-31.953,22.48-54.437t54.44-22.479q31.95,0,54.44,22.479,22.47,22.483,22.48,54.437t-22.48,54.438q-22.485,22.484-54.44,22.479t-54.44-22.479Q1540.275,534.175,1540.28,502.208Z"/>
</svg>
